HIERARCHY
ROOT newVegas:Hips
{
	OFFSET 0.000000 96.479958 0.000000
	CHANNELS 6 Xposition Yposition Zposition Xrotation Yrotation Zrotation
	JOINT newVegas:Pelvis
	{
		OFFSET 0.000000 0.000000 0.000000
		CHANNELS 3 Xrotation Yrotation Zrotation
		JOINT newVegas:LeftUpLeg
		{
			OFFSET 18.735201 -5.666702 -4.541200
			CHANNELS 3 Xrotation Yrotation Zrotation
			JOINT newVegas:LeftLeg
			{
				OFFSET -0.021200 -31.938179 0.493100
				CHANNELS 3 Xrotation Yrotation Zrotation
				JOINT newVegas:LeftFoot
				{
					OFFSET 0.021200 -31.938179 -4.336299
					CHANNELS 3 Xrotation Yrotation Zrotation
					JOINT newVegas:LeftToeBase
					{
						OFFSET 0.943001 -26.722000 15.023500
						CHANNELS 3 Xrotation Yrotation Zrotation
						End Site
						{
							OFFSET 0.000000 30.670183 0.000000
						}
					}
				}
				JOINT newVegas:Left_PantLeg
				{
					OFFSET 0.663870 -9.044666 -1.108900
					CHANNELS 3 Xrotation Yrotation Zrotation
					End Site
					{
						OFFSET 1.415995 20.635357 0.000000
					}
				}
			}
		}
		JOINT newVegas:RightUpLeg
		{
			OFFSET -18.735201 -5.666702 -4.541200
			CHANNELS 3 Xrotation Yrotation Zrotation
			JOINT newVegas:RightLeg
			{
				OFFSET 0.018946 -31.938133 0.493100
				CHANNELS 3 Xrotation Yrotation Zrotation
				JOINT newVegas:RightFoot
				{
					OFFSET -0.018946 -31.938126 -4.336299
					CHANNELS 3 Xrotation Yrotation Zrotation
					JOINT newVegas:RightToeBase
					{
						OFFSET -0.943001 -26.722004 15.023500
						CHANNELS 3 Xrotation Yrotation Zrotation
						End Site
						{
							OFFSET 0.000000 30.670187 0.000000
						}
					}
				}
				JOINT newVegas:Right_PantLeg
				{
					OFFSET -0.661674 -9.044716 -1.108900
					CHANNELS 3 Xrotation Yrotation Zrotation
					End Site
					{
						OFFSET -1.415958 20.635269 0.000000
					}
				}
			}
		}
	}
	JOINT newVegas:Spine
	{
		OFFSET 0.000000 10.199997 -0.299500
		CHANNELS 3 Xrotation Yrotation Zrotation
		JOINT newVegas:Spine1
		{
			OFFSET 0.000000 11.900002 -1.516600
			CHANNELS 3 Xrotation Yrotation Zrotation
			JOINT newVegas:Spine2
			{
				OFFSET 0.000000 13.600006 -2.842500
				CHANNELS 3 Xrotation Yrotation Zrotation
				JOINT newVegas:Neck
				{
					OFFSET 0.000000 9.624100 -2.890100
					CHANNELS 3 Xrotation Yrotation Zrotation
					JOINT newVegas:Head
					{
						OFFSET 0.000000 14.068802 -1.351900
						CHANNELS 3 Xrotation Yrotation Zrotation
						JOINT newVegas:Hair_Back
						{
							OFFSET 0.000000 3.231903 -17.524799
							CHANNELS 3 Xrotation Yrotation Zrotation
							End Site
							{
								OFFSET 0.000000 19.849884 0.000000
							}
						}
						JOINT newVegas:Hair_Front
						{
							OFFSET 0.000000 31.260406 4.573800
							CHANNELS 3 Xrotation Yrotation Zrotation
							JOINT newVegas:Hair_Front1
							{
								OFFSET 0.000000 2.284103 11.993300
								CHANNELS 3 Xrotation Yrotation Zrotation
								JOINT newVegas:Hair_Front2
								{
									OFFSET 0.000000 2.284103 11.993300
									CHANNELS 3 Xrotation Yrotation Zrotation
									End Site
									{
										OFFSET 0.000000 12.208862 0.000000
									}
								}
							}
						}
						JOINT newVegas:Jowel
						{
							OFFSET 0.000000 -7.458206 6.864100
							CHANNELS 3 Xrotation Yrotation Zrotation
							End Site
							{
								OFFSET 0.000000 19.849884 0.000000
							}
						}
					}
				}
				JOINT newVegas:LeftShoulder
				{
					OFFSET 15.263000 10.923401 -0.547700
					CHANNELS 3 Xrotation Yrotation Zrotation
					JOINT newVegas:LeftArm
					{
						OFFSET 25.438599 -2.830597 -13.032500
						CHANNELS 3 Xrotation Yrotation Zrotation
						JOINT newVegas:LeftForeArm
						{
							OFFSET 29.960503 0.000000 0.000000
							CHANNELS 3 Xrotation Yrotation Zrotation
							JOINT newVegas:LeftHand
							{
								OFFSET 27.849251 0.000000 0.000000
								CHANNELS 3 Xrotation Yrotation Zrotation
								JOINT newVegas:LeftHandThumb1
								{
									OFFSET 4.487587 -3.305161 6.305391
									CHANNELS 3 Xrotation Yrotation Zrotation
									JOINT newVegas:LeftHandThumb2
									{
										OFFSET 5.480453 -3.164139 3.164143
										CHANNELS 3 Xrotation Yrotation Zrotation
										JOINT newVegas:LeftHandThumb3
										{
											OFFSET 5.159721 -2.978973 2.978967
											CHANNELS 3 Xrotation Yrotation Zrotation
											End Site
											{
												OFFSET 2.494507 5.926697 1.738678
											}
										}
									}
								}
								JOINT newVegas:LeftHandIndex1
								{
									OFFSET 18.578728 -0.527832 5.208049
									CHANNELS 3 Xrotation Yrotation Zrotation
									JOINT newVegas:LeftHandIndex2
									{
										OFFSET 3.192009 0.000000 0.000000
										CHANNELS 3 Xrotation Yrotation Zrotation
										JOINT newVegas:LeftHandIndex3
										{
											OFFSET 3.835129 0.000000 0.000000
											CHANNELS 3 Xrotation Yrotation Zrotation
											End Site
											{
												OFFSET -0.034599 3.816971 0.371180
											}
										}
									}
								}
								JOINT newVegas:LeftHandMiddle1
								{
									OFFSET 18.476105 0.000000 0.000000
									CHANNELS 3 Xrotation Yrotation Zrotation
									JOINT newVegas:LeftHandMiddle2
									{
										OFFSET 3.324875 0.000000 0.000000
										CHANNELS 3 Xrotation Yrotation Zrotation
										JOINT newVegas:LeftHandMiddle3
										{
											OFFSET 4.596550 0.000000 0.000000
											CHANNELS 3 Xrotation Yrotation Zrotation
											End Site
											{
												OFFSET 0.057701 4.578827 0.399218
											}
										}
									}
								}
								JOINT newVegas:LeftHandRing1
								{
									OFFSET 17.732719 0.121887 -4.201567
									CHANNELS 3 Xrotation Yrotation Zrotation
									JOINT newVegas:LeftHandRing2
									{
										OFFSET 2.733170 0.000000 0.000000
										CHANNELS 3 Xrotation Yrotation Zrotation
										JOINT newVegas:LeftHandRing3
										{
											OFFSET 3.178268 0.000000 0.000000
											CHANNELS 3 Xrotation Yrotation Zrotation
											End Site
											{
												OFFSET 0.119102 3.170624 0.185394
											}
										}
									}
								}
								JOINT newVegas:LeftHandPinky1
								{
									OFFSET 15.989624 -0.606689 -7.535461
									CHANNELS 3 Xrotation Yrotation Zrotation
									JOINT newVegas:LeftHandPinky2
									{
										OFFSET 2.538986 0.000000 0.000000
										CHANNELS 3 Xrotation Yrotation Zrotation
										JOINT newVegas:LeftHandPinky3
										{
											OFFSET 2.593102 0.000000 0.000000
											CHANNELS 3 Xrotation Yrotation Zrotation
											End Site
											{
												OFFSET -0.150902 2.584198 0.152708
											}
										}
									}
								}
							}
							JOINT newVegas:Left_Sleeve
							{
								OFFSET 0.267448 -0.649796 0.577675
								CHANNELS 3 Xrotation Yrotation Zrotation
								End Site
								{
									OFFSET 0.000000 15.991241 0.000000
								}
							}
							JOINT newVegas:Left_CapeC
							{
								OFFSET 15.715958 -8.608795 -6.935905
								CHANNELS 3 Xrotation Yrotation Zrotation
								JOINT newVegas:Left_CapeC1
								{
									OFFSET 0.000000 -8.688499 0.000000
									CHANNELS 3 Xrotation Yrotation Zrotation
									End Site
									{
										OFFSET 0.000000 8.688499 0.000000
									}
								}
							}
						}
						JOINT newVegas:Left_CapeB
						{
							OFFSET 26.118385 -8.608795 -7.079235
							CHANNELS 3 Xrotation Yrotation Zrotation
							JOINT newVegas:Left_CapeB1
							{
								OFFSET 0.000000 -8.688499 0.000000
								CHANNELS 3 Xrotation Yrotation Zrotation
								End Site
								{
									OFFSET 0.000000 8.688499 0.000000
								}
							}
						}
						JOINT newVegas:Left_CapeA
						{
							OFFSET 5.115639 -8.608795 -10.395809
							CHANNELS 3 Xrotation Yrotation Zrotation
							JOINT newVegas:Left_CapeA1
							{
								OFFSET 0.000000 -8.688499 0.000000
								CHANNELS 3 Xrotation Yrotation Zrotation
								End Site
								{
									OFFSET 0.000000 8.688499 0.000000
								}
							}
						}
					}
				}
				JOINT newVegas:RightShoulder
				{
					OFFSET -15.263000 10.923401 -0.547700
					CHANNELS 3 Xrotation Yrotation Zrotation
					JOINT newVegas:RightArm
					{
						OFFSET -25.438599 -2.830597 -13.032500
						CHANNELS 3 Xrotation Yrotation Zrotation
						JOINT newVegas:RightForeArm
						{
							OFFSET -29.960503 0.000000 0.000000
							CHANNELS 3 Xrotation Yrotation Zrotation
							JOINT newVegas:RightHand
							{
								OFFSET -27.849251 0.000000 0.000000
								CHANNELS 3 Xrotation Yrotation Zrotation
								JOINT newVegas:RightHandThumb1
								{
									OFFSET -4.487587 -3.305161 6.305391
									CHANNELS 3 Xrotation Yrotation Zrotation
									JOINT newVegas:RightHandThumb2
									{
										OFFSET -5.480453 -3.164139 3.164143
										CHANNELS 3 Xrotation Yrotation Zrotation
										JOINT newVegas:RightHandThumb3
										{
											OFFSET -5.159721 -2.978973 2.978967
											CHANNELS 3 Xrotation Yrotation Zrotation
											End Site
											{
												OFFSET -2.494507 5.926697 1.738678
											}
										}
									}
								}
								JOINT newVegas:RightHandIndex1
								{
									OFFSET -18.578728 -0.527832 5.208049
									CHANNELS 3 Xrotation Yrotation Zrotation
									JOINT newVegas:RightHandIndex2
									{
										OFFSET -3.192009 0.000000 0.000000
										CHANNELS 3 Xrotation Yrotation Zrotation
										JOINT newVegas:RightHandIndex3
										{
											OFFSET -3.835129 0.000000 0.000000
											CHANNELS 3 Xrotation Yrotation Zrotation
											End Site
											{
												OFFSET 0.034599 3.816971 0.371180
											}
										}
									}
								}
								JOINT newVegas:RightHandMiddle1
								{
									OFFSET -18.476105 0.000000 0.000000
									CHANNELS 3 Xrotation Yrotation Zrotation
									JOINT newVegas:RightHandMiddle2
									{
										OFFSET -3.324875 0.000000 0.000000
										CHANNELS 3 Xrotation Yrotation Zrotation
										JOINT newVegas:RightHandMiddle3
										{
											OFFSET -4.596550 0.000000 0.000000
											CHANNELS 3 Xrotation Yrotation Zrotation
											End Site
											{
												OFFSET -0.057701 4.578827 0.399218
											}
										}
									}
								}
								JOINT newVegas:RightHandRing1
								{
									OFFSET -17.732719 0.121887 -4.201567
									CHANNELS 3 Xrotation Yrotation Zrotation
									JOINT newVegas:RightHandRing2
									{
										OFFSET -2.733170 0.000000 0.000000
										CHANNELS 3 Xrotation Yrotation Zrotation
										JOINT newVegas:RightHandRing3
										{
											OFFSET -3.178268 0.000000 0.000000
											CHANNELS 3 Xrotation Yrotation Zrotation
											End Site
											{
												OFFSET -0.119102 3.170624 0.185394
											}
										}
									}
								}
								JOINT newVegas:RightHandPinky1
								{
									OFFSET -15.989624 -0.606689 -7.535461
									CHANNELS 3 Xrotation Yrotation Zrotation
									JOINT newVegas:RightHandPinky2
									{
										OFFSET -2.538986 0.000000 0.000000
										CHANNELS 3 Xrotation Yrotation Zrotation
										JOINT newVegas:RightHandPinky3
										{
											OFFSET -2.593102 0.000000 0.000000
											CHANNELS 3 Xrotation Yrotation Zrotation
											End Site
											{
												OFFSET 0.150902 2.584198 0.152708
											}
										}
									}
								}
							}
							JOINT newVegas:Right_CapeC
							{
								OFFSET -15.715958 -8.608795 -6.935905
								CHANNELS 3 Xrotation Yrotation Zrotation
								JOINT newVegas:Right_CapeC1
								{
									OFFSET 0.000000 -8.688499 0.000000
									CHANNELS 3 Xrotation Yrotation Zrotation
									End Site
									{
										OFFSET 0.000000 8.688499 0.000000
									}
								}
							}
							JOINT newVegas:Right_Sleeve
							{
								OFFSET -0.267448 -0.649994 0.577675
								CHANNELS 3 Xrotation Yrotation Zrotation
								End Site
								{
									OFFSET 0.000000 15.991302 0.000000
								}
							}
						}
						JOINT newVegas:Right_CapeA
						{
							OFFSET -5.115540 -8.608795 -10.395824
							CHANNELS 3 Xrotation Yrotation Zrotation
							JOINT newVegas:Right_CapeA1
							{
								OFFSET 0.000000 -8.688499 0.000000
								CHANNELS 3 Xrotation Yrotation Zrotation
								End Site
								{
									OFFSET 0.000000 8.688499 0.000000
								}
							}
						}
						JOINT newVegas:Right_CapeB
						{
							OFFSET -26.118187 -8.608795 -7.079266
							CHANNELS 3 Xrotation Yrotation Zrotation
							JOINT newVegas:Right_CapeB1
							{
								OFFSET 0.000000 -8.688499 0.000000
								CHANNELS 3 Xrotation Yrotation Zrotation
								End Site
								{
									OFFSET 0.000000 8.688499 0.000000
								}
							}
						}
					}
				}
				JOINT newVegas:Left_Collar
				{
					OFFSET 18.625099 8.655502 8.828100
					CHANNELS 3 Xrotation Yrotation Zrotation
					JOINT newVegas:Left_Collar1
					{
						OFFSET 14.783401 10.540405 -1.259500
						CHANNELS 3 Xrotation Yrotation Zrotation
						End Site
						{
							OFFSET 0.000000 18.199875 0.000000
						}
					}
				}
				JOINT newVegas:Collar_Back
				{
					OFFSET 0.000000 15.630707 -20.132601
					CHANNELS 3 Xrotation Yrotation Zrotation
					End Site
					{
						OFFSET 0.000000 22.523010 0.000000
					}
				}
				JOINT newVegas:Left_Peck
				{
					OFFSET 17.239599 -5.132599 25.482599
					CHANNELS 3 Xrotation Yrotation Zrotation
					End Site
					{
						OFFSET 0.000000 22.523010 0.000000
					}
				}
				JOINT newVegas:Right_Peck
				{
					OFFSET -17.239599 -5.132202 25.482599
					CHANNELS 3 Xrotation Yrotation Zrotation
					End Site
					{
						OFFSET 0.000000 22.523010 0.000000
					}
				}
				JOINT newVegas:Right_Collar
				{
					OFFSET -18.625099 8.655792 8.828100
					CHANNELS 3 Xrotation Yrotation Zrotation
					JOINT newVegas:Right_Collar1
					{
						OFFSET -14.783401 10.539993 -1.259500
						CHANNELS 3 Xrotation Yrotation Zrotation
						End Site
						{
							OFFSET 0.000000 18.199631 0.000000
						}
					}
				}
			}
		}
		JOINT newVegas:Belly
		{
			OFFSET 0.000000 -6.540398 9.014299
			CHANNELS 3 Xrotation Yrotation Zrotation
			End Site
			{
				OFFSET 0.000000 11.566666 0.000000
			}
		}
	}
	JOINT newVegas:ElvisFacialAnim_Joint
	{
		OFFSET 1.000000 -95.330101 -8.825800
		CHANNELS 3 Xrotation Yrotation Zrotation
		End Site
		{
			OFFSET 0.000000 35.315800 0.000000
		}
	}
}
MOTION
Frames: 4
Frame Time: 0.016667
13.540718 89.515854 4.008378 0.106614 -14.350960 -0.692900 -0.000000 0.000001 -0.000000 -41.366474 16.553541 13.368109 35.688476 3.282290 -0.307731 3.189932 3.849708 1.799329 -0.000000 0.000000 -0.000000 -0.000000 0.000000 0.000000 16.852320 -13.006172 -13.454326 6.344933 -8.796764 -2.351073 2.377943 -30.079832 29.774181 0.000000 0.000002 -0.000000 0.000002 -0.000003 -0.000000 3.350506 6.609406 1.102136 5.702284 5.280718 -0.499363 5.733338 5.288552 -0.505928 0.320102 -0.459513 -0.151052 0.320108 -0.459514 -0.151052 0.000002 0.000000 -0.000000 0.320108 -0.459514 -0.151052 0.320099 -0.459514 -0.151052 -0.000000 0.000000 -0.000000 0.000002 0.000000 -0.000000 1.436036 -16.183546 -11.832202 4.371248 -17.711381 -70.621861 0.000006 -1.959649 -0.000013 -28.197850 4.927870 -6.929710 17.051279 0.605565 9.924454 8.412408 18.861680 8.764021 -0.000003 -0.000000 -0.000001 -0.230046 0.629967 -24.059652 0.326346 1.929768 -19.195492 0.000000 -0.000000 0.000002 1.439013 6.701319 -23.736789 0.393090 2.111629 -21.088153 -0.000002 -0.000001 0.000001 2.753073 9.013655 -26.896645 0.620232 2.625338 -26.580002 0.000001 0.000003 -0.000003 -1.526773 3.334658 -24.114085 0.485493 2.336993 -23.468595 -0.000001 -0.000002 -0.000000 -0.000000 0.000001 0.000000 -0.000000 0.000001 0.000000 -0.000001 0.000001 0.000000 -0.000001 -0.000001 -0.000000 -0.000001 -0.000001 -0.000001 -0.000001 -0.000001 -0.000000 -0.000002 -0.000001 -0.000001 1.658336 17.888962 11.302978 19.140014 23.439196 54.213564 -0.000001 9.806393 -0.000012 -29.145582 0.884282 8.766005 -8.302565 0.398022 -5.586461 17.627771 -35.645139 -5.802378 0.000004 -0.000002 -0.000001 0.223131 -3.289006 31.332820 1.151119 -3.067340 41.132724 0.000003 0.000001 0.000003 0.367259 -4.243309 36.284359 0.903326 -2.758402 36.259565 -0.000000 -0.000000 0.000002 0.253958 -4.020491 34.263063 2.482418 -4.119200 62.136123 0.000001 -0.000001 -0.000000 -1.363567 -2.067897 2.332840 1.398067 -3.328573 45.557222 -0.000001 -0.000002 -0.000002 -0.000000 -0.000000 -0.000000 0.000001 0.000000 0.000000 -0.000000 -0.000000 -0.000001 -0.000001 0.000001 0.000001 -0.000001 0.000001 -0.000001 -0.000001 0.000001 0.000001 -0.000001 0.000001 -0.000001 0.000001 0.000000 -0.000000 0.000001 0.000000 -0.000000 0.000001 0.000000 -0.000000 0.000001 0.000000 -0.000000 0.000001 0.000000 -0.000000 0.000001 0.000000 -0.000000 0.000001 0.000000 -0.000000 -0.000000 -0.000000 0.000000 -0.000000 0.000001 -0.000000 
13.649901 89.874290 4.838384 0.141050 -13.506518 -1.266842 -0.000000 -0.000000 -0.000000 -40.907372 16.140029 13.099464 35.640897 2.998329 0.059047 2.674342 3.740633 1.714178 -0.000000 0.000000 0.000000 0.000000 0.000001 0.000001 17.806836 -12.538418 -11.754055 4.929862 -8.576298 -2.858244 2.807083 -30.067463 27.429584 0.000001 0.000001 0.000000 0.000001 0.000000 0.000002 3.323197 6.425947 1.237358 5.475627 5.086796 -0.375941 5.506008 5.094621 -0.381536 0.295237 -0.455910 -0.127066 0.295227 -0.455910 -0.127067 -0.000000 0.000000 -0.000000 0.295236 -0.455911 -0.127066 0.295311 -0.455910 -0.127066 -0.000001 -0.000000 -0.000000 -0.000000 0.000000 -0.000000 1.546710 -15.956551 -11.597232 4.649733 -17.806824 -71.207311 -0.000001 -1.957784 -0.000011 -28.037819 5.028236 -6.998931 16.338919 0.661630 9.744992 8.582450 19.224244 9.068802 0.000001 0.000000 -0.000004 -0.354527 0.422779 -23.446597 0.321490 1.915776 -19.050740 0.000003 -0.000003 -0.000001 1.259383 6.314850 -23.505647 0.386307 2.093967 -20.903324 -0.000001 0.000000 0.000006 2.535561 8.588583 -26.921553 0.612222 2.609295 -26.404681 -0.000002 0.000001 -0.000002 -1.514562 3.279474 -24.303679 0.471131 2.303667 -23.113949 -0.000001 -0.000003 0.000000 0.000000 0.000000 0.000000 0.000000 0.000000 0.000000 -0.000001 0.000001 0.000000 -0.000002 -0.000001 -0.000000 -0.000002 -0.000001 -0.000000 -0.000002 -0.000001 -0.000000 -0.000003 -0.000001 -0.000001 1.648786 17.596932 11.504324 19.064417 23.584011 54.060968 -0.000007 9.496023 -0.000003 -29.279740 0.481551 9.602320 -8.035172 0.366145 -5.539185 17.303535 -35.271022 -6.351945 0.000001 -0.000007 -0.000002 0.222917 -3.262660 31.544109 1.184013 -3.104543 41.743596 0.000000 -0.000002 -0.000002 0.488850 -4.411467 36.406069 0.899294 -2.752893 36.175708 0.000001 0.000001 0.000002 0.379089 -4.216690 34.741607 2.488702 -4.122495 62.223604 -0.000001 -0.000001 -0.000001 -1.175382 -2.581107 3.857839 1.398375 -3.328863 45.562515 0.000000 0.000003 -0.000000 -0.000001 0.000001 0.000000 0.000000 0.000001 0.000001 -0.000001 0.000000 -0.000000 -0.000004 0.000000 -0.000000 -0.000003 0.000000 -0.000000 -0.000004 0.000000 -0.000000 -0.000003 -0.000000 -0.000000 -0.000000 0.000000 -0.000000 -0.000000 0.000000 -0.000000 -0.000000 0.000000 -0.000000 -0.000000 0.000000 -0.000000 -0.000000 0.000000 -0.000000 -0.000000 0.000000 -0.000000 -0.000000 0.000000 -0.000000 0.000000 0.000000 -0.000000 -0.000000 -0.000000 -0.000000 
13.755772 90.217262 5.658075 0.136615 -12.731282 -1.854054 -0.000000 0.000001 -0.000000 -40.422747 15.641326 12.747223 35.668791 2.776103 0.631337 2.126508 3.758193 1.461511 -0.000000 -0.000001 0.000000 -0.000000 -0.000002 0.000001 18.004642 -11.836783 -9.997122 4.850854 -8.236461 -3.236813 2.104329 -30.187425 24.369852 0.000000 0.000000 0.000000 0.000001 0.000000 0.000000 3.383041 6.192413 1.404770 5.265010 4.877300 -0.249395 5.294493 4.885099 -0.254194 0.266138 -0.449390 -0.098016 0.266127 -0.449391 -0.098016 0.000002 -0.000000 -0.000000 0.266138 -0.449392 -0.098015 0.266273 -0.449391 -0.098015 0.000001 0.000000 -0.000000 0.000002 -0.000000 -0.000000 1.668380 -15.722138 -11.303542 5.072046 -18.079439 -71.739710 0.000004 -2.161852 0.000004 -27.878080 4.925532 -7.118377 15.626696 0.717772 9.563693 8.757920 19.595545 9.368311 -0.000002 -0.000003 -0.000005 -0.448682 0.230266 -22.727176 0.315735 1.899026 -18.877789 0.000002 0.000000 -0.000000 1.103464 5.977774 -23.213127 0.379892 2.077087 -20.726936 -0.000001 0.000001 -0.000001 2.344025 8.226279 -26.858059 0.603945 2.592551 -26.222128 0.000001 -0.000001 -0.000001 -1.472412 3.281893 -24.486295 0.457574 2.271653 -22.774238 0.000001 -0.000002 0.000001 -0.000000 0.000000 -0.000001 -0.000000 0.000000 -0.000001 -0.000001 0.000000 -0.000001 0.000001 0.000000 -0.000001 0.000001 0.000000 0.000000 0.000001 0.000000 -0.000001 -0.000001 0.000000 -0.000001 1.607468 17.388994 11.779405 18.954887 23.762471 53.877813 -0.000003 9.210233 0.000013 -29.194506 -0.055451 10.481840 -7.767918 0.335012 -5.491250 17.000235 -34.919110 -6.879720 0.000001 -0.000004 -0.000001 0.219176 -3.222593 31.610583 1.215730 -3.139676 42.326091 0.000002 0.000005 0.000002 0.591887 -4.551949 36.463330 0.896065 -2.748486 36.108376 -0.000000 0.000000 -0.000001 0.477365 -4.365802 35.091562 2.492181 -4.124327 62.271934 -0.000000 -0.000001 0.000001 -1.018842 -2.996052 5.251855 1.387859 -3.318538 45.381081 -0.000001 0.000005 -0.000001 -0.000000 0.000000 0.000001 0.000003 0.000000 0.000001 -0.000000 -0.000000 0.000000 -0.000003 -0.000002 -0.000000 -0.000003 -0.000001 0.000000 -0.000003 -0.000002 -0.000000 -0.000002 -0.000001 0.000000 -0.000002 -0.000000 -0.000000 -0.000002 -0.000000 -0.000000 -0.000002 -0.000000 -0.000000 -0.000002 -0.000000 -0.000000 -0.000002 -0.000000 -0.000000 -0.000002 -0.000000 -0.000000 -0.000002 -0.000000 -0.000000 -0.000001 0.000000 0.000000 -0.000000 0.000001 -0.000000 
13.854532 90.531448 6.442455 0.088108 -12.035181 -2.426599 0.000000 0.000001 0.000000 -39.918679 15.094435 12.337984 35.761450 2.651587 1.347203 1.567583 3.841085 1.085171 0.000000 -0.000001 0.000000 -0.000000 0.000001 0.000001 17.732185 -10.999762 -8.221646 5.592496 -7.930890 -3.422034 0.607365 -30.237664 21.011289 0.000000 0.000001 0.000000 0.000001 0.000000 -0.000000 3.515861 5.921072 1.576894 5.068805 4.655224 -0.118313 5.097200 4.662916 -0.122468 0.237169 -0.439531 -0.065538 0.237164 -0.439532 -0.065538 0.000001 -0.000000 -0.000000 0.237170 -0.439531 -0.065538 0.237167 -0.439530 -0.065538 -0.000002 0.000000 -0.000000 0.000001 -0.000000 0.000000 1.781681 -15.529536 -10.997105 5.582008 -18.487317 -72.199259 0.000003 -2.479507 0.000010 -27.793312 4.625064 -7.277755 14.914647 0.774066 9.380565 8.926103 19.947030 9.673874 -0.000003 -0.000005 -0.000005 -0.490256 0.083325 -21.939900 0.309253 1.879959 -18.681104 0.000001 0.000001 0.000002 0.991090 5.735645 -22.871560 0.374083 2.061689 -20.566113 0.000000 -0.000000 0.000002 2.192678 7.954087 -26.682896 0.595398 2.575175 -26.032774 -0.000000 -0.000002 -0.000002 -1.389094 3.361654 -24.651597 0.445802 2.243447 -22.475525 0.000000 -0.000003 -0.000001 -0.000000 0.000000 0.000000 -0.000000 0.000000 0.000000 -0.000001 0.000001 0.000000 0.000002 0.000000 -0.000000 0.000002 0.000000 -0.000000 0.000002 0.000000 -0.000000 0.000000 0.000000 -0.000000 1.544432 17.250257 12.099923 18.801761 23.998592 53.682039 0.000001 8.944022 -0.000002 -28.906665 -0.668838 11.289675 -7.500799 0.304610 -5.442641 16.711513 -34.581446 -7.391957 0.000001 -0.000005 -0.000003 0.200009 -3.158761 31.584229 1.240530 -3.166655 42.776840 -0.000001 -0.000000 -0.000001 0.669576 -4.657075 36.482093 0.892308 -2.743330 36.029962 0.000001 -0.000001 0.000003 0.548042 -4.470723 35.336568 2.490659 -4.123525 62.250665 0.000000 -0.000001 -0.000001 -0.886514 -3.342433 6.588632 1.369709 -3.300561 45.066715 0.000001 0.000002 -0.000001 0.000001 -0.000002 -0.000001 -0.000001 -0.000002 -0.000001 0.000001 -0.000003 -0.000001 0.000002 -0.000001 -0.000000 0.000002 -0.000001 -0.000001 0.000002 -0.000001 -0.000000 0.000002 -0.000001 -0.000001 0.000000 -0.000000 0.000000 0.000000 -0.000000 0.000000 0.000000 -0.000000 0.000000 0.000000 -0.000000 0.000000 0.000000 -0.000000 0.000000 0.000000 -0.000000 0.000000 0.000000 -0.000000 0.000000 0.000001 -0.000000 -0.000000 0.000000 0.000001 0.000000 
